<svg width="315" height="123" viewBox="0 0 315 123" fill="none" xmlns="http://www.w3.org/2000/svg">
<rect width="76.1429" height="123" fill="#5222D0"/>
<path d="M57.3943 38.3529V49.638H33.8357V61.8291H51.4635V72.7847H33.8357V96.1786H19.75V38.3529H57.3943Z" fill="white"/>
<path d="M78.4493 73.1142C78.4493 68.3915 79.3279 64.2454 81.0852 60.6759C82.8974 57.1064 85.3412 54.3607 88.4164 52.4386C91.4917 50.5166 94.9239 49.5556 98.713 49.5556C101.953 49.5556 104.781 50.2146 107.197 51.5325C109.669 52.8505 111.563 54.5803 112.881 56.722V50.2146H126.967V96.1786H112.881V89.6711C111.508 91.8128 109.586 93.5426 107.115 94.8606C104.699 96.1786 101.871 96.8376 98.6306 96.8376C94.8964 96.8376 91.4917 95.8765 88.4164 93.9545C85.3412 91.9776 82.8974 89.2043 81.0852 85.6349C79.3279 82.0105 78.4493 77.8369 78.4493 73.1142ZM112.881 73.1966C112.881 69.682 111.893 66.9088 109.916 64.8769C107.994 62.8451 105.632 61.8291 102.832 61.8291C100.031 61.8291 97.6422 62.8451 95.6652 64.8769C93.7432 66.8539 92.7822 69.5996 92.7822 73.1142C92.7822 76.6288 93.7432 79.4294 95.6652 81.5162C97.6422 83.5481 100.031 84.564 102.832 84.564C105.632 84.564 107.994 83.5481 109.916 81.5162C111.893 79.4844 112.881 76.7111 112.881 73.1966ZM173.401 49.7203C178.783 49.7203 183.066 51.4776 186.251 54.9922C189.491 58.4518 191.111 63.2295 191.111 69.325V96.1786H177.108V71.2196C177.108 68.1444 176.312 65.7556 174.719 64.0532C173.127 62.3508 170.985 61.4996 168.294 61.4996C165.603 61.4996 163.462 62.3508 161.869 64.0532C160.277 65.7556 159.48 68.1444 159.48 71.2196V96.1786H145.395V50.2146H159.48V56.3101C160.908 54.2783 162.83 52.6857 165.246 51.5325C167.663 50.3244 170.381 49.7203 173.401 49.7203ZM206.336 73.1966C206.336 68.4189 207.297 64.2454 209.219 60.6759C211.196 57.1064 213.915 54.3607 217.374 52.4386C220.889 50.5166 224.898 49.5556 229.401 49.5556C235.167 49.5556 239.972 51.0657 243.816 54.0861C247.715 57.1064 250.268 61.3623 251.477 66.8539H236.485C235.222 63.3393 232.778 61.582 229.154 61.582C226.572 61.582 224.513 62.5979 222.976 64.6298C221.438 66.6067 220.669 69.4623 220.669 73.1966C220.669 76.9308 221.438 79.8138 222.976 81.8457C224.513 83.8227 226.572 84.8111 229.154 84.8111C232.778 84.8111 235.222 83.0538 236.485 79.5393H251.477C250.268 84.921 247.715 89.1494 243.816 92.2247C239.917 95.2999 235.112 96.8376 229.401 96.8376C224.898 96.8376 220.889 95.8765 217.374 93.9545C213.915 92.0325 211.196 89.2867 209.219 85.7172C207.297 82.1477 206.336 77.9742 206.336 73.1966ZM314.201 50.2146L285.37 118.007H270.214L280.757 94.6135L262.059 50.2146H277.792L288.418 78.9627L298.962 50.2146H314.201Z" fill="black"/>
</svg>
